<?xml version="1.0" encoding="utf-8"?>
<!-- Generator: Adobe Illustrator 23.1.0, SVG Export Plug-In . SVG Version: 6.00 Build 0)  -->
<svg version="1.1" id="Layer_1" xmlns="http://www.w3.org/2000/svg" xmlns:xlink="http://www.w3.org/1999/xlink" x="0px" y="0px"
	 viewBox="0 0 16 16" style="enable-background:new 0 0 16 16;" xml:space="preserve">
<g>
	<path d="M4.3,3c0.9,0,1.6-0.7,1.6-1.5S5.2,0,4.3,0S2.7,0.7,2.7,1.5S3.4,3,4.3,3 M2.2,6.8v8.5C2.2,15.7,2.5,16,3,16s0.8-0.3,0.8-0.8
		v-4.8C3.8,10.2,4,10,4.3,10c0.3,0,0.5,0.2,0.5,0.5v4.8c0,0.4,0.4,0.8,0.8,0.8s0.8-0.3,0.8-0.8V6.8c0-0.1,0.1-0.3,0.3-0.3
		S7,6.6,7,6.8v2.5C7,9.7,7.4,10,7.8,10c0.4,0,0.8-0.3,0.8-0.8V6.5c0-1.7-1.4-3-3.2-3H3.2C1.4,3.5,0,4.8,0,6.5v2.8
		C0,9.7,0.4,10,0.8,10s0.8-0.3,0.8-0.8V6.8c0-0.1,0.1-0.3,0.3-0.3S2.2,6.6,2.2,6.8"/>
	<g>
		<path d="M13.8,12.5c0,0.8-0.7,1.5-1.6,1.5c-0.9,0-1.6-0.7-1.6-1.5c0-0.6,0.4-1.2,1.1-1.4V6.5c0-0.3,0.2-0.5,0.5-0.5
			c0.3,0,0.5,0.2,0.5,0.5v4.6C13.4,11.3,13.8,11.9,13.8,12.5"/>
		<path d="M9.5,2.5c0-1.4,1.2-2.5,2.7-2.5s2.7,1.1,2.7,2.5v7.6c1.5,1.4,1.4,3.6-0.1,4.9c-1.5,1.4-3.9,1.3-5.3-0.1
			c-1.4-1.4-1.4-3.5,0-4.9V2.5z M12.2,1c-0.9,0-1.6,0.7-1.6,1.5v8l-0.2,0.1c-1.1,0.9-1.2,2.5-0.2,3.5c1,1,2.7,1.1,3.8,0.2
			c1.1-0.9,1.2-2.5,0.2-3.5c-0.1-0.1-0.1-0.1-0.2-0.2l-0.2-0.1v-8C13.8,1.7,13.1,1,12.2,1"/>
	</g>
</g>
</svg>
